<mxfile host="app.diagrams.net" modified="2023-09-15T00:19:18.951Z" agent="Mozilla/5.0 (Windows NT 10.0; Win64; x64) AppleWebKit/537.36 (KHTML, like Gecko) Chrome/116.0.0.0 Safari/537.36" version="21.7.5" etag="eg8_q0_lBH6O6cOc1zgQ" type="github">
  <diagram name="Page-1" id="jdizC4G4V4GC6viA4dHk">
    <mxGraphModel>
      <root>
        <mxCell id="0" />
        <mxCell id="1" parent="0" />
      </root>
    </mxGraphModel>
  </diagram>
</mxfile>
